<?xml version="1.0" standalone="no"?>
<!DOCTYPE svg PUBLIC "-//W3C//DTD SVG 20010904//EN"
 "http://www.w3.org/TR/2001/REC-SVG-20010904/DTD/svg10.dtd">
<svg version="1.0" xmlns="http://www.w3.org/2000/svg"
 width="2137.000000pt" height="2137.000000pt" viewBox="0 0 2137.000000 2137.000000"
 preserveAspectRatio="xMidYMid meet">
<metadata>
Created by potrace 1.14, written by Peter Selinger 2001-2017
</metadata>
<g transform="translate(0.000000,2137.000000) scale(0.100000,-0.100000)"
fill="#000000" stroke="none">
<path d="M12399 20016 c-2 -2 -29 -7 -59 -11 -30 -3 -63 -9 -73 -12 -11 -3
-29 -6 -40 -8 -49 -6 -233 -58 -295 -82 -71 -28 -173 -87 -218 -125 -79 -67
-184 -184 -184 -204 0 -7 -4 -14 -9 -16 -13 -5 -77 -147 -100 -224 -22 -74
-22 -88 -6 -454 3 -69 8 -179 10 -245 10 -240 15 -342 20 -435 2 -52 7 -151
10 -220 4 -69 8 -161 11 -205 2 -44 6 -136 9 -205 3 -69 8 -156 10 -195 3 -38
7 -117 10 -175 3 -58 7 -141 10 -185 2 -44 7 -125 10 -180 2 -55 7 -136 10
-180 9 -148 15 -269 21 -370 2 -55 7 -129 9 -165 2 -36 7 -114 10 -175 3 -60
8 -132 10 -160 2 -27 6 -88 10 -135 7 -108 15 -204 21 -255 2 -22 6 -69 9
-105 2 -36 5 -65 5 -65 2 0 7 -45 15 -125 4 -36 8 -72 10 -80 1 -8 6 -41 10
-74 3 -32 8 -68 10 -80 2 -11 7 -41 10 -66 2 -25 7 -56 9 -70 3 -14 10 -59 16
-100 16 -101 42 -252 54 -316 2 -12 7 -37 10 -55 6 -37 9 -50 25 -119 5 -25
12 -58 15 -75 9 -50 15 -76 20 -93 3 -9 7 -28 10 -42 22 -114 111 -450 161
-610 20 -63 38 -122 39 -130 2 -8 23 -69 46 -135 23 -66 44 -129 47 -140 2
-11 9 -29 14 -40 4 -11 33 -83 62 -160 30 -78 64 -161 75 -185 11 -25 27 -63
36 -85 82 -199 263 -540 367 -692 16 -23 29 -46 29 -52 0 -6 4 -11 8 -11 4 0
16 -15 27 -32 10 -18 21 -35 24 -38 13 -10 41 -60 39 -67 -3 -8 -5 -9 -103
-17 -79 -7 -100 -10 -205 -32 -613 -129 -1171 -537 -1587 -1162 l-56 -83 -33
133 c-63 247 -138 448 -249 670 -177 355 -416 648 -700 858 -411 304 -887 426
-1380 355 -259 -38 -537 -149 -778 -309 -62 -41 -121 -83 -132 -93 -11 -10
-40 -34 -65 -54 -93 -76 -244 -233 -340 -354 -168 -213 -316 -476 -434 -771
-31 -77 -56 -147 -56 -155 0 -8 -16 4 -35 26 -19 22 -44 50 -55 62 -11 12 -20
25 -20 28 0 3 -8 13 -17 23 -21 22 -103 115 -133 152 -35 42 -152 170 -207
228 -29 30 -53 56 -53 58 0 7 -371 375 -420 418 -25 21 -62 52 -83 70 -22 17
-49 39 -60 50 -12 10 -56 44 -97 74 -41 31 -76 60 -78 64 -2 4 -10 8 -18 8 -8
0 -14 5 -14 10 0 6 -5 10 -10 10 -6 0 -20 8 -31 18 -10 11 -32 25 -47 33 -15
8 -29 16 -32 19 -4 5 -115 72 -175 107 -41 24 -286 143 -293 143 -5 0 -26 8
-48 19 -65 31 -275 98 -379 122 -27 6 -54 12 -60 13 -5 2 -32 6 -60 11 -70 11
-84 19 -56 34 12 7 30 14 39 16 21 5 149 52 177 65 11 5 43 19 70 31 131 56
319 155 435 227 19 12 43 25 52 28 10 4 18 10 18 15 0 5 7 9 15 9 8 0 15 4 15
9 0 5 14 14 30 21 17 7 30 16 30 21 0 5 4 9 10 9 8 0 216 144 230 160 3 3 32
25 65 50 33 24 67 51 77 60 9 8 29 25 45 37 15 12 38 30 50 40 12 10 35 28 51
40 16 12 40 33 54 45 14 13 43 37 63 53 21 17 48 40 61 53 13 12 25 22 28 22
3 0 22 15 41 33 19 17 57 51 83 74 26 23 59 52 73 65 134 119 201 181 315 294
74 72 134 129 134 126 0 -3 11 7 25 22 14 15 25 32 25 37 0 6 4 8 9 5 5 -3 16
4 24 17 8 12 66 74 128 139 140 143 271 284 361 390 31 35 119 136 138 157 13
14 60 70 135 159 11 13 29 34 40 47 11 12 31 37 45 55 14 18 30 37 35 44 29
32 73 87 100 121 17 22 38 47 48 57 9 10 17 20 17 23 0 3 7 13 15 23 68 79 85
101 85 110 0 6 3 12 8 14 4 2 25 26 47 53 22 28 43 51 47 53 5 2 8 10 8 17 0
7 3 15 8 17 9 4 72 85 72 93 0 3 9 15 20 27 11 12 32 40 47 62 16 23 31 43 36
44 4 2 7 10 7 17 0 7 4 15 9 17 10 3 54 65 168 233 37 55 71 102 75 103 4 2 8
10 8 18 0 8 5 14 10 14 6 0 10 7 10 15 0 8 4 15 8 15 5 0 14 11 20 25 7 14 17
31 23 38 6 7 35 50 65 97 29 47 58 92 64 100 36 54 70 112 70 120 0 6 3 10 8
10 4 0 23 27 42 61 38 67 39 68 91 154 35 57 53 88 105 183 13 23 36 63 51 90
14 26 38 70 52 97 14 28 30 53 34 56 5 3 9 10 10 15 0 5 30 72 67 149 85 178
93 197 150 340 59 150 100 325 105 453 3 77 -4 86 -39 53 -29 -25 -105 -52
-153 -54 -41 -1 -173 47 -173 64 0 5 -5 9 -10 9 -6 0 -52 42 -103 93 -140 138
-153 148 -265 204 -83 41 -182 54 -245 34 -67 -22 -173 -147 -193 -226 -3 -14
-11 -25 -17 -25 -6 0 -8 -3 -5 -6 4 -3 -5 -38 -18 -77 -22 -65 -33 -116 -49
-232 -3 -22 -8 -51 -11 -65 -3 -14 -8 -36 -10 -50 -2 -14 -7 -36 -11 -50 -9
-36 -11 -42 -17 -70 -3 -14 -12 -50 -21 -80 -9 -30 -18 -64 -20 -74 -11 -48
-99 -300 -130 -371 -10 -22 -21 -49 -26 -60 -52 -130 -280 -590 -308 -622 -6
-7 -11 -16 -11 -20 0 -4 -23 -46 -50 -92 -28 -46 -50 -85 -50 -87 0 -8 -155
-249 -162 -252 -4 -2 -8 -7 -8 -12 0 -11 -180 -273 -194 -282 -6 -5 -7 -8 -1
-8 6 0 6 -3 -1 -8 -6 -4 -38 -45 -72 -92 -84 -117 -125 -171 -140 -187 -7 -7
-11 -13 -7 -13 3 0 -15 -26 -40 -57 -59 -73 -64 -80 -100 -128 -16 -22 -34
-45 -40 -51 -5 -6 -19 -23 -30 -39 -11 -15 -45 -58 -75 -95 -30 -37 -68 -85
-85 -105 -16 -20 -39 -47 -50 -60 -11 -13 -36 -42 -55 -65 -70 -83 -154 -178
-207 -235 -24 -25 -43 -48 -43 -50 0 -5 -91 -102 -212 -225 -53 -54 -94 -101
-91 -104 4 -3 1 -6 -5 -6 -15 0 -52 -37 -52 -52 0 -6 -3 -9 -6 -5 -8 8 -74
-59 -74 -75 0 -6 -3 -9 -6 -5 -3 3 -41 -29 -83 -71 -43 -42 -118 -113 -166
-157 -48 -44 -100 -91 -115 -105 -14 -14 -52 -47 -85 -75 -32 -27 -71 -62 -87
-77 -16 -16 -31 -28 -33 -28 -2 0 -15 -10 -27 -22 -29 -28 -103 -92 -154 -135
-22 -18 -53 -45 -71 -60 -17 -15 -50 -44 -74 -63 -24 -19 -51 -43 -61 -52 -10
-10 -22 -18 -26 -18 -4 0 -14 -9 -22 -20 -8 -11 -18 -20 -23 -20 -4 0 -18 -9
-30 -21 -12 -11 -35 -30 -51 -42 -16 -12 -37 -30 -47 -39 -11 -10 -21 -18 -24
-18 -4 0 -28 -18 -59 -45 -6 -5 -33 -26 -59 -45 -26 -19 -62 -47 -80 -62 -18
-15 -37 -28 -44 -28 -6 0 -13 -4 -15 -9 -6 -17 -272 -191 -279 -184 -4 5 -10
40 -13 78 -4 39 -9 93 -11 120 -3 28 -7 70 -10 95 -2 25 -6 70 -10 100 -3 30
-7 80 -10 110 -2 30 -6 80 -9 110 -6 52 -8 80 -21 240 -3 36 -7 83 -10 105 -3
37 -7 79 -21 250 -3 33 -7 80 -9 105 -2 25 -6 79 -10 120 -3 41 -7 100 -10
130 -2 30 -7 89 -10 130 -3 41 -7 98 -10 125 -2 28 -6 91 -10 140 -3 50 -8
117 -10 150 -7 85 -15 198 -20 285 -3 41 -7 102 -9 135 -3 33 -8 107 -11 165
-4 58 -8 128 -10 155 -6 85 -22 342 -30 495 -3 47 -7 121 -10 165 -3 44 -7
123 -10 175 -6 120 -14 279 -20 395 -3 50 -8 151 -11 225 -13 339 -10 321 -69
339 -192 58 -487 205 -713 353 -41 26 -78 48 -83 48 -5 0 -9 5 -9 10 0 6 -6
10 -14 10 -8 0 -16 4 -18 8 -1 5 -25 23 -53 42 -27 18 -52 36 -55 39 -3 3 -12
11 -21 16 -55 34 -205 140 -211 149 -5 7 -8 7 -8 1 0 -7 -3 -7 -8 0 -4 6 -16
15 -27 22 -219 133 -392 219 -541 269 -170 57 -234 68 -379 63 -34 -1 -149
-40 -167 -56 -10 -9 -18 -12 -18 -8 0 4 -8 -2 -19 -13 -10 -12 -22 -22 -27
-22 -5 0 -16 -10 -24 -21 -8 -12 -25 -34 -36 -48 -40 -49 -91 -181 -98 -256
-3 -24 -8 -88 -11 -142 -3 -54 -8 -118 -10 -143 -4 -39 -10 -133 -20 -315 -1
-27 -5 -95 -9 -150 -3 -55 -8 -149 -11 -210 -3 -60 -7 -150 -10 -200 -7 -121
-14 -292 -20 -455 -3 -74 -7 -178 -10 -230 -7 -164 -18 -520 -19 -632 -1 -60
-3 -108 -6 -108 -3 0 -5 -53 -6 -118 0 -64 -4 -216 -9 -337 -12 -353 -14 -416
-30 -1020 -8 -311 -16 -838 -21 -1530 -8 -992 -8 -979 -19 -987 -7 -5 -7 -8 0
-8 6 0 9 -35 7 -92 -4 -117 -6 -2545 -2 -2653 1 -44 1 -84 0 -90 -1 -5 -1 -12
0 -15 5 -13 9 -425 14 -1495 7 -1586 15 -2344 31 -2835 7 -250 18 -544 21
-610 4 -61 14 -834 14 -1000 l0 -45 83 -2 c130 -2 282 -47 477 -140 104 -50
318 -168 330 -183 9 -11 171 -100 300 -165 182 -92 407 -178 560 -215 25 -6
54 -13 65 -15 22 -6 225 -42 296 -54 25 -4 52 -7 60 -6 8 2 43 5 79 9 63 5
164 30 185 45 6 4 43 20 83 35 39 15 72 32 72 37 0 5 6 9 14 9 8 0 26 10 41
23 62 53 132 123 138 140 3 9 11 17 16 17 12 0 29 82 46 215 3 28 8 57 10 65
2 8 7 42 10 75 4 32 9 63 12 68 3 4 7 34 9 65 2 31 5 66 8 78 2 12 7 45 11 75
3 30 8 65 10 79 2 14 11 79 20 145 8 66 18 136 21 155 3 19 7 58 10 85 2 28 6
59 8 70 2 11 7 54 11 95 4 41 9 84 11 95 2 11 6 45 9 75 3 30 7 69 10 85 2 17
7 55 10 85 3 30 8 73 10 95 3 22 7 67 10 100 3 33 7 74 10 90 2 17 7 64 10
105 4 41 8 91 11 110 2 19 6 71 9 115 3 44 8 91 10 105 4 22 10 97 20 240 4
57 14 177 20 255 3 33 7 103 10 155 3 52 7 122 10 155 6 95 16 236 20 285 2
25 7 97 11 160 8 140 7 133 19 142 7 5 6 8 -1 8 -5 0 -9 15 -8 32 6 75 15 219
19 308 3 52 7 133 10 180 4 75 8 165 20 485 29 747 24 2158 -10 2955 -4 111
-10 236 -21 460 -3 58 -7 146 -9 195 -3 50 -6 115 -9 145 -2 30 -7 105 -11
165 -3 61 -8 138 -11 172 -2 33 -6 94 -9 135 -3 40 -7 100 -9 133 -15 198 -16
225 -7 225 6 0 23 -17 38 -37 15 -21 30 -40 33 -43 17 -15 130 -178 130 -188
0 -5 4 -12 9 -14 8 -3 69 -93 97 -143 6 -11 39 -66 73 -123 33 -57 61 -105 61
-107 0 -1 25 -47 56 -101 31 -55 57 -103 58 -109 1 -5 6 -17 11 -25 12 -20
339 -673 340 -680 0 -3 4 -10 8 -17 4 -7 61 -117 126 -245 213 -419 226 -443
236 -450 6 -4 6 -8 1 -8 -5 0 -2 -8 6 -17 8 -10 30 -49 49 -88 19 -38 37 -72
40 -75 3 -3 22 -39 43 -80 21 -41 50 -97 65 -125 15 -27 51 -95 80 -150 30
-55 70 -129 89 -165 56 -101 88 -159 125 -230 19 -36 44 -81 55 -100 11 -19
32 -55 45 -80 13 -25 35 -65 49 -90 14 -25 40 -72 58 -105 18 -33 42 -76 53
-95 11 -19 27 -48 35 -65 9 -16 18 -32 21 -35 3 -3 13 -18 21 -35 8 -16 24
-46 36 -65 11 -19 46 -82 76 -140 119 -225 137 -257 157 -282 8 -10 11 -18 6
-18 -4 0 -3 -6 3 -12 5 -7 20 -31 33 -53 12 -22 33 -58 45 -80 13 -22 37 -65
54 -95 55 -100 319 -542 329 -550 3 -3 12 -16 20 -30 8 -14 19 -34 25 -44 6
-11 19 -29 29 -40 9 -11 17 -23 17 -28 0 -5 27 -49 60 -99 33 -50 60 -93 60
-95 0 -3 5 -10 11 -17 6 -7 27 -37 47 -69 50 -76 164 -242 171 -248 3 -3 22
-27 41 -55 19 -27 38 -51 42 -53 4 -2 8 -10 8 -17 0 -7 11 -23 25 -36 13 -13
25 -30 25 -36 0 -7 5 -13 10 -13 6 0 14 -8 17 -17 4 -10 20 -31 35 -48 15 -16
28 -36 28 -42 0 -7 4 -13 8 -13 5 0 24 -21 42 -47 19 -27 39 -53 45 -59 5 -7
21 -27 35 -45 14 -18 35 -43 47 -56 12 -13 20 -23 18 -23 -3 0 3 -8 13 -18 9
-10 37 -42 62 -72 25 -30 59 -70 76 -90 17 -19 42 -48 55 -64 13 -16 45 -51
72 -78 26 -27 47 -51 47 -53 0 -17 499 -515 516 -515 3 0 15 -11 28 -25 21
-23 95 -84 176 -145 18 -14 44 -35 59 -47 14 -13 29 -23 32 -23 3 0 17 -9 30
-21 73 -64 363 -246 529 -332 52 -27 100 -52 105 -56 6 -4 26 -13 45 -21 19
-7 53 -20 75 -30 43 -19 210 -79 235 -85 8 -2 60 -15 115 -29 184 -46 357 -69
520 -69 44 0 98 3 120 7 59 10 186 55 217 77 14 11 29 19 32 19 6 0 96 59 116
77 8 7 35 30 59 50 52 44 104 96 146 147 17 21 42 50 56 65 14 16 36 44 49 62
13 19 30 38 37 42 7 4 13 13 13 18 0 6 6 16 13 23 6 8 19 24 27 36 8 12 20 28
26 34 37 39 294 437 294 456 0 5 3 10 8 12 20 9 340 660 334 681 -1 4 3 7 8 7
6 0 10 6 10 13 0 8 6 27 14 43 13 28 29 63 74 166 11 25 18 49 14 52 -3 3 0 6
6 6 7 0 12 6 12 13 0 7 14 46 31 87 31 72 50 123 106 275 14 39 30 76 35 83 6
6 8 12 4 12 -3 0 3 24 15 53 11 28 22 59 24 67 2 8 16 49 30 90 14 41 28 82
30 90 14 60 16 62 287 180 646 281 1072 526 1346 775 34 31 59 50 56 41 -3 -9
-10 -16 -15 -16 -5 0 -9 -6 -9 -14 0 -8 -3 -16 -8 -18 -4 -1 -34 -43 -67 -93
-32 -49 -63 -91 -67 -93 -4 -2 -8 -8 -8 -13 0 -5 -20 -38 -45 -75 -25 -36 -45
-67 -45 -69 0 -2 -22 -40 -50 -85 -27 -45 -50 -86 -50 -91 0 -5 -3 -9 -8 -9
-4 0 -13 -15 -21 -32 -8 -18 -17 -35 -20 -38 -3 -3 -17 -27 -31 -55 -14 -27
-27 -52 -30 -55 -3 -3 -30 -54 -60 -115 -30 -60 -58 -112 -62 -113 -5 -2 -8
-8 -8 -14 0 -5 -16 -43 -35 -83 -46 -97 -86 -186 -120 -265 -15 -36 -36 -84
-46 -107 -11 -24 -19 -47 -19 -51 0 -5 -7 -23 -16 -41 -9 -17 -17 -37 -18 -44
-2 -7 -9 -25 -15 -42 -37 -87 -191 -575 -216 -682 -2 -10 -13 -51 -24 -91 -10
-39 -17 -72 -15 -72 2 0 -1 -12 -7 -26 -5 -15 -12 -43 -15 -63 -3 -20 -7 -44
-10 -53 -6 -20 -13 -55 -19 -88 -2 -14 -6 -35 -9 -46 -6 -29 -13 -72 -26 -174
-6 -47 -13 -96 -15 -109 -14 -79 -20 -213 -20 -416 0 -260 8 -365 41 -540 25
-135 86 -347 107 -372 5 -7 7 -13 4 -13 -9 0 81 -179 114 -226 16 -23 29 -45
29 -48 0 -6 25 -39 53 -68 9 -10 17 -21 17 -25 0 -3 45 -50 100 -104 141 -138
289 -231 455 -287 71 -23 176 -49 238 -58 15 -2 42 -6 60 -9 28 -4 106 -8 422
-20 50 -2 92 -4 94 -4 2 -1 90 -3 195 -6 105 -2 283 -7 396 -11 322 -10 484
-7 585 12 215 39 381 89 545 164 52 24 100 47 106 52 6 4 32 19 58 33 25 14
72 42 103 62 31 21 63 43 72 48 8 6 20 15 26 20 7 6 31 26 56 45 62 50 249
237 249 249 0 6 4 11 9 11 4 0 35 34 67 76 33 42 65 82 72 89 6 8 12 18 12 24
0 5 6 14 13 18 6 4 17 15 22 24 6 9 36 55 68 103 31 48 57 91 57 96 0 6 4 10
8 10 5 0 16 15 25 33 9 17 29 52 43 77 58 99 244 459 244 474 0 3 13 33 29 68
45 99 73 162 75 173 3 12 14 39 55 135 17 38 28 70 25 70 -3 0 1 12 9 28 9 15
23 50 32 77 9 28 19 57 22 65 4 8 7 17 8 20 7 28 69 224 80 255 8 22 16 52 19
67 2 15 7 31 10 36 10 16 110 420 151 607 7 35 74 369 79 400 3 17 8 41 11 55
3 14 7 41 10 60 2 19 14 85 25 145 11 61 23 130 26 155 3 25 7 52 9 60 2 8 7
38 10 65 4 28 8 57 10 65 3 8 12 67 20 130 9 63 18 131 21 150 3 19 7 51 9 70
7 58 15 124 20 150 2 14 6 45 9 70 3 25 8 65 11 90 3 25 7 61 10 80 2 19 7 58
10 85 7 73 15 135 19 175 3 19 8 62 11 95 3 33 8 76 10 95 2 19 7 67 11 105 3
39 8 84 9 100 2 17 6 62 10 100 3 39 8 93 10 120 7 73 15 161 21 235 3 36 7
85 9 110 2 25 7 86 10 135 3 50 8 110 11 135 2 25 6 83 9 130 3 47 7 117 10
155 4 64 13 245 20 417 3 77 9 88 61 107 21 7 74 30 118 51 45 21 104 48 131
60 55 25 148 67 300 138 55 25 108 52 118 60 9 9 17 12 17 9 0 -6 125 57 300
151 47 25 103 55 125 66 22 11 42 22 45 25 3 3 25 17 50 30 68 37 344 203 350
211 3 4 21 15 40 25 19 10 37 21 40 24 3 3 28 22 55 41 28 19 52 38 53 42 2 4
10 8 18 8 8 0 17 7 20 15 4 8 10 15 15 15 6 0 21 10 35 23 40 35 246 242 271
271 38 45 129 188 161 250 31 61 31 75 -5 114 -7 7 -13 17 -13 21 0 9 -87 64
-93 60 -3 -2 -13 3 -23 12 -27 23 -70 35 -174 45 -36 4 -67 8 -69 10 -3 3 -33
-43 -82 -126 -8 -13 -18 -30 -24 -36 -5 -6 -19 -24 -30 -40 -11 -15 -32 -42
-46 -59 -14 -16 -34 -41 -45 -53 -36 -44 -175 -182 -184 -182 -5 0 -13 -6 -17
-14 -4 -8 -33 -34 -63 -57 -30 -24 -60 -49 -66 -55 -7 -5 -45 -33 -85 -60 -41
-27 -76 -51 -79 -54 -10 -10 -69 -50 -74 -50 -3 0 -31 -16 -61 -35 -30 -20
-104 -61 -163 -91 -59 -31 -111 -60 -116 -65 -6 -5 -18 -9 -28 -9 -10 0 -18
-4 -18 -10 0 -5 -9 -10 -20 -10 -11 0 -20 -4 -20 -10 0 -5 -6 -10 -13 -10 -6
0 -63 -23 -126 -51 -175 -78 -550 -218 -557 -208 -3 5 -2 98 1 207 4 108 9
249 10 312 2 63 6 198 9 300 6 199 13 449 22 790 3 118 7 415 9 660 2 245 4
450 5 455 1 6 2 12 1 15 -1 3 -4 239 -6 525 -2 286 -6 655 -10 820 -10 535
-15 747 -20 925 -3 96 -7 252 -10 345 -2 94 -7 240 -10 325 -3 85 -8 218 -10
295 -7 182 -14 384 -20 515 -2 58 -7 174 -10 259 l-6 155 -55 113 c-31 62 -65
127 -77 146 -12 18 -31 48 -41 67 -11 19 -28 44 -38 54 -10 11 -18 26 -18 33
0 7 -4 13 -8 13 -4 0 -16 14 -26 31 -20 33 -178 199 -190 199 -4 0 -16 9 -28
19 -25 24 -112 66 -164 80 -32 8 -173 24 -209 23 -112 -2 -314 -30 -410 -56
-98 -27 -241 -73 -264 -86 -17 -9 -16 -6 -26 -135 -12 -164 -25 -362 -30 -480
-5 -107 -15 -571 -21 -995 -7 -526 -8 -573 -17 -587 -4 -6 -3 -14 3 -18 6 -4
8 -10 6 -14 -3 -4 -8 -68 -11 -142 -10 -239 -21 -426 -30 -479 -2 -14 -7 -45
-10 -70 -3 -25 -10 -67 -15 -95 -12 -59 -18 -89 -26 -132 -3 -18 -10 -33 -15
-33 -5 0 -6 -6 -3 -14 6 -14 -3 -45 -68 -246 -41 -128 -104 -299 -139 -380
-11 -25 -24 -54 -29 -65 -21 -51 -41 -97 -80 -180 -23 -49 -41 -92 -40 -94 1
-2 -2 -7 -7 -10 -4 -3 -37 -63 -73 -134 -36 -70 -70 -135 -75 -145 -6 -9 -23
-39 -38 -67 -45 -82 -78 -138 -105 -180 -15 -22 -35 -55 -45 -74 -10 -19 -25
-41 -33 -48 -8 -8 -14 -21 -14 -29 0 -8 -4 -14 -10 -14 -5 0 -10 -4 -10 -10 0
-5 -22 -41 -50 -80 -27 -39 -50 -72 -50 -75 0 -3 -4 -11 -10 -18 -43 -53 -60
-76 -60 -81 0 -4 -5 -12 -10 -19 -6 -7 -32 -41 -60 -77 -85 -111 -100 -131
-143 -181 -12 -14 -33 -40 -47 -58 -13 -18 -33 -43 -45 -55 -11 -13 -47 -53
-80 -91 -67 -77 -265 -274 -320 -320 -20 -16 -47 -40 -60 -53 -13 -12 -27 -22
-30 -22 -3 0 -13 -8 -23 -17 -10 -10 -29 -25 -42 -33 -12 -8 -28 -21 -36 -27
-7 -7 -17 -13 -23 -13 -5 0 -16 -6 -23 -13 -45 -44 -210 -114 -295 -125 -127
-17 -206 26 -262 143 -23 47 -71 193 -71 213 0 1 0 3 -1 5 0 1 -2 16 -4 32 -2
17 -6 44 -9 60 -9 48 -21 169 -31 325 -6 89 -5 533 1 685 8 194 8 203 16 211
4 3 3 14 -2 24 -5 10 -8 19 -6 21 8 7 33 645 37 912 1 64 6 117 11 117 5 0 6
5 2 12 -11 18 -13 77 -3 84 5 3 6 11 2 17 -4 6 -5 52 -3 102 2 49 4 515 4
1035 1 821 -4 1158 -19 1430 -2 36 -6 124 -10 195 -3 72 -8 157 -10 190 -2 33
-6 101 -9 150 -10 142 -16 235 -22 300 -3 33 -7 83 -9 110 -3 53 -13 161 -21
234 -2 25 -7 79 -10 120 -9 128 -21 252 -29 321 -11 94 -18 169 -19 207 -1 24
-3 43 -6 43 -3 0 -7 15 -8 33 -4 46 -44 315 -57 377 -3 14 -7 39 -10 55 -2 17
-7 44 -10 60 -3 17 -12 64 -20 105 -8 41 -22 107 -30 145 -9 39 -22 102 -30
140 -12 55 -71 282 -89 340 -1 6 -6 26 -10 47 -5 20 -15 38 -24 41 -10 3 -55
19 -102 37 -224 82 -723 210 -960 245 -49 7 -445 17 -451 11z m4505 -7366 c-2
-110 -15 -416 -19 -455 -2 -16 -7 -73 -11 -125 -11 -151 -13 -178 -29 -330 -2
-25 -7 -70 -10 -100 -5 -53 -20 -183 -30 -265 -3 -22 -7 -60 -10 -85 -3 -25
-8 -61 -10 -81 -3 -20 -7 -54 -10 -75 -2 -21 -7 -59 -10 -84 -3 -25 -8 -65
-10 -90 -14 -124 -17 -147 -20 -170 -2 -14 -7 -50 -10 -80 -3 -30 -8 -66 -10
-80 -9 -59 -25 -178 -29 -215 -3 -22 -8 -56 -11 -75 -3 -19 -7 -53 -10 -75 -7
-59 -17 -127 -21 -150 -2 -11 -11 -67 -19 -125 -20 -133 -24 -158 -30 -192
-16 -84 -30 -190 -27 -200 1 -5 -1 -8 -5 -8 -5 0 -8 -12 -9 -27 0 -30 -12
-118 -19 -143 -2 -8 -6 -31 -9 -50 -6 -40 -12 -73 -26 -145 -5 -27 -12 -66
-14 -85 -3 -19 -13 -73 -21 -120 -9 -47 -18 -98 -20 -114 -3 -16 -6 -30 -7
-31 -2 -1 -55 -23 -118 -50 -336 -142 -805 -375 -1039 -517 -34 -21 -67 -38
-72 -38 -5 0 -9 -3 -9 -8 0 -4 -20 -18 -45 -32 -25 -14 -45 -28 -45 -32 0 -5
-5 -8 -10 -8 -9 0 -184 -123 -200 -140 -3 -3 -43 -37 -90 -76 -47 -39 -118
-103 -158 -142 -40 -40 -75 -72 -78 -72 -3 0 10 30 29 68 78 153 143 332 186
512 23 96 57 294 66 385 4 33 8 71 11 85 16 103 22 448 10 620 -24 347 -112
705 -239 967 -39 82 -39 79 3 81 36 3 51 5 115 18 46 9 160 51 207 76 24 12
45 22 48 23 5 1 32 15 111 58 24 13 60 32 79 43 19 10 37 21 40 24 11 11 70
50 75 50 6 0 20 11 50 38 7 6 17 12 20 12 7 0 86 61 116 90 9 8 31 26 49 40
79 62 326 301 322 312 -1 5 5 8 13 8 8 0 15 3 15 8 0 4 29 38 65 76 36 38 82
89 102 114 36 42 68 79 113 128 11 12 20 26 20 32 0 6 4 12 8 14 5 2 33 35 63
73 30 39 57 72 61 73 5 2 8 10 8 18 0 8 5 14 10 14 6 0 10 7 10 15 0 7 6 18
13 22 7 4 35 42 62 83 28 41 52 77 55 80 13 13 58 88 64 108 4 12 12 22 17 22
6 0 8 4 5 9 -4 5 -2 11 2 13 9 3 41 57 86 143 12 22 23 42 26 45 7 7 92 182
120 245 46 106 50 116 50 124 0 5 8 26 17 47 l17 39 6 -40 c3 -22 4 -78 4
-125z m-598 -4466 c-25 -140 -27 -148 -31 -164 -2 -8 -7 -31 -10 -50 -3 -19
-24 -126 -46 -238 -46 -233 -40 -201 -74 -362 -27 -127 -32 -149 -39 -185 -2
-11 -7 -31 -10 -45 -3 -14 -28 -126 -56 -250 -28 -124 -67 -290 -87 -370 -19
-79 -36 -151 -38 -160 -2 -8 -8 -35 -15 -60 -7 -25 -13 -52 -15 -60 -16 -78
-101 -396 -107 -398 -5 -2 -6 -7 -3 -11 2 -5 -7 -50 -21 -102 -14 -52 -27
-101 -29 -109 -6 -24 -72 -258 -95 -335 -11 -38 -23 -79 -25 -90 -11 -47 -158
-515 -187 -595 -11 -30 -21 -62 -23 -70 -12 -48 -81 -236 -90 -242 -5 -4 -7
-8 -3 -8 7 0 1 -19 -52 -155 -17 -44 -38 -100 -46 -125 -9 -25 -20 -49 -25
-55 -5 -5 -9 -15 -9 -22 0 -8 -9 -33 -20 -55 -11 -23 -20 -45 -20 -50 0 -4
-13 -37 -30 -73 -16 -36 -30 -67 -30 -69 0 -14 -191 -408 -201 -416 -3 -3 -15
-23 -25 -45 -19 -39 -71 -129 -106 -183 -10 -15 -22 -36 -27 -47 -5 -12 -16
-27 -25 -34 -9 -7 -16 -19 -16 -26 0 -8 -3 -15 -7 -17 -5 -1 -20 -21 -34 -43
-51 -76 -180 -214 -254 -273 -65 -51 -215 -112 -247 -102 -5 1 -11 3 -15 4
-20 4 -60 32 -81 55 -46 53 -119 232 -142 351 -5 25 -12 56 -15 70 -13 58 -35
175 -40 213 -3 23 -7 49 -10 57 -2 8 -6 38 -10 65 -6 52 -14 104 -20 143 -26
156 -25 708 0 932 3 19 7 62 10 95 6 69 14 129 20 165 3 14 7 45 10 70 7 52
37 229 49 285 3 11 12 54 21 95 22 103 78 315 115 435 17 55 36 116 42 135 15
52 108 320 123 355 7 17 25 59 39 95 13 36 33 83 42 105 10 22 17 43 16 48 -1
4 2 7 8 7 5 0 10 5 10 11 0 7 29 68 64 138 83 165 100 195 109 199 4 2 7 8 7
12 0 12 83 144 92 148 5 2 8 10 8 17 0 8 6 20 13 27 7 7 28 36 47 63 19 28 37
52 42 53 4 2 8 9 8 16 0 7 11 23 25 36 14 13 25 29 25 36 0 7 3 14 8 16 6 3
24 24 102 122 8 10 26 31 40 47 14 15 45 51 70 79 65 75 176 185 259 260 40
36 83 74 95 85 25 23 137 113 216 173 30 23 60 46 67 52 7 5 15 10 18 10 4 0
12 6 19 13 8 6 24 19 36 27 12 8 33 23 45 33 13 9 26 17 29 17 4 0 12 5 19 10
27 23 217 140 227 140 5 0 10 3 12 8 3 7 13 13 158 90 47 25 99 53 115 62 17
10 34 14 38 10 4 -4 1 -47 -7 -96z m-4513 -2310 c-9 -21 -17 -44 -19 -49 -1
-10 -54 -143 -74 -190 -5 -11 -30 -72 -56 -135 -25 -63 -51 -121 -56 -127 -6
-7 -8 -13 -5 -13 5 0 -14 -46 -84 -198 -16 -35 -29 -65 -29 -67 0 -9 -180
-367 -191 -381 -6 -8 -8 -14 -3 -14 5 0 5 -4 -1 -8 -5 -4 -26 -38 -45 -77 -19
-38 -37 -72 -40 -75 -7 -7 -25 -37 -56 -95 -15 -27 -29 -52 -33 -55 -3 -3 -13
-18 -21 -35 -8 -16 -19 -34 -23 -40 -5 -5 -31 -46 -60 -90 -28 -44 -56 -85
-62 -91 -24 -27 -45 -55 -45 -60 0 -2 -29 -34 -64 -69 -108 -108 -191 -144
-256 -110 -51 26 -160 145 -160 175 0 5 -4 10 -8 10 -5 0 -15 12 -23 28 -7 15
-30 50 -50 77 -19 28 -73 113 -118 190 -97 165 -93 157 -126 218 l-26 48 32
37 c133 153 554 516 769 662 12 8 50 35 84 60 60 44 284 195 318 215 9 6 77
47 150 92 174 106 392 225 396 215 1 -5 -5 -26 -15 -48z"/>
</g>
</svg>
